<svg width="40" height="41" viewBox="0 0 40 41" fill="none" xmlns="http://www.w3.org/2000/svg">
<g id="chart-pie (1) 1" clip-path="url(#clip0_1_623)">
<path id="Vector" d="M20 0.500488C16.0444 0.500488 12.1776 1.67347 8.8886 3.8711C5.59962 6.06872 3.03617 9.1923 1.52242 12.8468C0.0086658 16.5013 -0.387401 20.5227 0.384303 24.4023C1.15601 28.2819 3.06082 31.8456 5.85787 34.6426C8.65492 37.4397 12.2186 39.3445 16.0982 40.1162C19.9778 40.8879 23.9992 40.4918 27.6537 38.9781C31.3082 37.4643 34.4318 34.9009 36.6294 31.6119C38.827 28.3229 40 24.4561 40 20.5005C40 15.1962 37.8929 10.1091 34.1421 6.35835C30.3914 2.60763 25.3043 0.500488 20 0.500488ZM36.5817 18.8338H21.6667V3.91882C25.4897 4.30809 29.0614 6.00456 31.7787 8.72184C34.4959 11.4391 36.1924 15.0108 36.5817 18.8338ZM3.33334 20.5005C3.33855 16.3704 4.87507 12.389 7.64575 9.32612C10.4164 6.26328 14.2244 4.33665 18.3333 3.91882V21.1905L30.54 33.3972C28.0997 35.3962 25.1419 36.6611 22.0107 37.0445C18.8796 37.4279 15.7039 36.9141 12.8534 35.5628C10.0029 34.2116 7.5948 32.0786 5.90941 29.412C4.22402 26.7455 3.33067 23.655 3.33334 20.5005ZM32.8967 31.0405L24.0233 22.1672H36.5817C36.2566 25.424 34.9744 28.5116 32.8967 31.0405Z" fill="#1D266C"/>
<g id="Mask group">
<mask id="mask0_1_623" style="mask-type:alpha" maskUnits="userSpaceOnUse" x="0" y="0" width="40" height="41">
<path id="Vector_2" d="M20 0.500488C16.0444 0.500488 12.1776 1.67347 8.8886 3.8711C5.59962 6.06872 3.03617 9.1923 1.52242 12.8468C0.0086658 16.5013 -0.387401 20.5227 0.384303 24.4023C1.15601 28.2819 3.06082 31.8456 5.85787 34.6426C8.65492 37.4397 12.2186 39.3445 16.0982 40.1162C19.9778 40.8879 23.9992 40.4918 27.6537 38.9781C31.3082 37.4643 34.4318 34.9009 36.6294 31.6119C38.827 28.3229 40 24.4561 40 20.5005C40 15.1962 37.8929 10.1091 34.1421 6.35835C30.3914 2.60763 25.3043 0.500488 20 0.500488ZM36.5817 18.8338H21.6667V3.91882C25.4897 4.30809 29.0614 6.00456 31.7787 8.72184C34.4959 11.4391 36.1924 15.0108 36.5817 18.8338ZM3.33334 20.5005C3.33855 16.3704 4.87507 12.389 7.64575 9.32612C10.4164 6.26328 14.2244 4.33665 18.3333 3.91882V21.1905L30.54 33.3972C28.0997 35.3962 25.1419 36.6611 22.0107 37.0445C18.8796 37.4279 15.7039 36.9141 12.8534 35.5628C10.0029 34.2116 7.5948 32.0786 5.90941 29.412C4.22402 26.7455 3.33067 23.655 3.33334 20.5005ZM32.8967 31.0405L24.0233 22.1672H36.5817C36.2566 25.424 34.9744 28.5116 32.8967 31.0405Z" fill="black"/>
</mask>
<g mask="url(#mask0_1_623)">
<path id="Vector 13" d="M16.5 22.5001L22 18.5001L24.5 13.5005C25 11.167 25.4 6.10014 23 4.50014C20.6 2.90014 18 3.83348 17 4.50014L16.5 22.5001Z" fill="#9C9C9C"/>
</g>
</g>
</g>
<defs>
<clipPath id="clip0_1_623">
<rect width="40" height="40" fill="white" transform="translate(0 0.500488)"/>
</clipPath>
</defs>
</svg>
