<svg width="40" height="41" viewBox="0 0 40 41" fill="none" xmlns="http://www.w3.org/2000/svg">
<g id="chart-histogram (2) 1" clip-path="url(#clip0_1_569)">
<path id="Vector" d="M38.3333 37.1672H8.33333C7.00725 37.1672 5.73548 36.6404 4.7978 35.7027C3.86012 34.765 3.33333 33.4932 3.33333 32.1672V2.16715C3.33333 1.72513 3.15774 1.3012 2.84518 0.988644C2.53262 0.676083 2.10869 0.500488 1.66667 0.500488C1.22464 0.500488 0.800716 0.676083 0.488155 0.988644C0.175595 1.3012 0 1.72513 0 2.16715L0 32.1672C0.00264643 34.3765 0.88147 36.4946 2.4437 38.0568C4.00593 39.619 6.12401 40.4978 8.33333 40.5005H38.3333C38.7754 40.5005 39.1993 40.3249 39.5118 40.0123C39.8244 39.6998 40 39.2758 40 38.8338C40 38.3918 39.8244 37.9679 39.5118 37.6553C39.1993 37.3427 38.7754 37.1672 38.3333 37.1672Z" fill="#1D266C"/>
<path id="Vector_2" d="M9.99479 33.8335C10.4368 33.8335 10.8607 33.6579 11.1733 33.3453C11.4859 33.0328 11.6615 32.6089 11.6615 32.1668V20.5002C11.6615 20.0581 11.4859 19.6342 11.1733 19.3217C10.8607 19.0091 10.4368 18.8335 9.99479 18.8335C9.55276 18.8335 9.12884 19.0091 8.81628 19.3217C8.50372 19.6342 8.32812 20.0581 8.32812 20.5002V32.1668C8.32812 32.6089 8.50372 33.0328 8.81628 33.3453C9.12884 33.6579 9.55276 33.8335 9.99479 33.8335Z" fill="#1D266C"/>
<path id="Vector_3" d="M16.6719 17.1672V32.1672C16.6719 32.6092 16.8475 33.0331 17.16 33.3457C17.4726 33.6582 17.8965 33.8338 18.3385 33.8338C18.7806 33.8338 19.2045 33.6582 19.5171 33.3457C19.8296 33.0331 20.0052 32.6092 20.0052 32.1672V17.1672C20.0052 16.7251 19.8296 16.3012 19.5171 15.9886C19.2045 15.6761 18.7806 15.5005 18.3385 15.5005C17.8965 15.5005 17.4726 15.6761 17.16 15.9886C16.8475 16.3012 16.6719 16.7251 16.6719 17.1672Z" fill="#1D266C"/>
<path id="Vector_4" d="M25 22.1672V32.1672C25 32.6092 25.1756 33.0331 25.4882 33.3457C25.8007 33.6582 26.2246 33.8338 26.6667 33.8338C27.1087 33.8338 27.5326 33.6582 27.8452 33.3457C28.1577 33.0331 28.3333 32.6092 28.3333 32.1672V22.1672C28.3333 21.7251 28.1577 21.3012 27.8452 20.9886C27.5326 20.6761 27.1087 20.5005 26.6667 20.5005C26.2246 20.5005 25.8007 20.6761 25.4882 20.9886C25.1756 21.3012 25 21.7251 25 22.1672Z" fill="#1D266C"/>
<path id="Vector_5" d="M33.3281 15.5002V32.1668C33.3281 32.6089 33.5037 33.0328 33.8163 33.3453C34.1288 33.6579 34.5528 33.8335 34.9948 33.8335C35.4368 33.8335 35.8607 33.6579 36.1733 33.3453C36.4859 33.0328 36.6615 32.6089 36.6615 32.1668V15.5002C36.6615 15.0581 36.4859 14.6342 36.1733 14.3217C35.8607 14.0091 35.4368 13.8335 34.9948 13.8335C34.5528 13.8335 34.1288 14.0091 33.8163 14.3217C33.5037 14.6342 33.3281 15.0581 33.3281 15.5002Z" fill="#1D266C"/>
<path id="Vector_6" d="M9.99444 15.5005C10.4364 15.5004 10.8603 15.3248 11.1728 15.0122L17.1494 9.03551C17.4671 8.73289 17.889 8.56409 18.3278 8.56409C18.7665 8.56409 19.1884 8.73289 19.5061 9.03551L23.1261 12.6555C24.0637 13.5929 25.3353 14.1194 26.6611 14.1194C27.9869 14.1194 29.2585 13.5929 30.1961 12.6555L39.5061 3.34552C39.8097 3.03118 39.9777 2.61017 39.9739 2.17318C39.9701 1.73619 39.7948 1.31817 39.4858 1.00915C39.1768 0.700138 38.7588 0.524856 38.3218 0.521059C37.8848 0.517262 37.4638 0.685252 37.1494 0.988849L27.8394 10.2972C27.5269 10.6096 27.103 10.7852 26.6611 10.7852C26.2192 10.7852 25.7953 10.6096 25.4828 10.2972L21.8628 6.67885C20.9251 5.74149 19.6536 5.21492 18.3278 5.21492C17.0019 5.21492 15.7304 5.74149 14.7928 6.67885L8.8161 12.6555C8.58309 12.8886 8.42441 13.1855 8.36013 13.5088C8.29585 13.8321 8.32886 14.1671 8.45497 14.4716C8.58109 14.7761 8.79466 15.0364 9.06867 15.2195C9.34269 15.4027 9.66485 15.5004 9.99444 15.5005Z" fill="#9C9C9C"/>
</g>
<defs>
<clipPath id="clip0_1_569">
<rect width="40" height="40" fill="white" transform="translate(0 0.500488)"/>
</clipPath>
</defs>
</svg>
