<svg width="40" height="41" viewBox="0 0 40 41" fill="none" xmlns="http://www.w3.org/2000/svg">
<g id="flag (3) 1" clip-path="url(#clip0_1_588)">
<path id="Vector" d="M33.3333 7.16715H25C25 5.39904 24.2976 3.70335 23.0474 2.45311C21.7971 1.20287 20.1014 0.500488 18.3333 0.500488L6.66667 0.500488C4.89856 0.500488 3.20286 1.20287 1.95262 2.45311C0.702379 3.70335 0 5.39904 0 7.16715L0 38.8338C0 39.2758 0.175595 39.6998 0.488155 40.0123C0.800716 40.3249 1.22464 40.5005 1.66667 40.5005C2.10869 40.5005 2.53262 40.3249 2.84518 40.0123C3.15774 39.6998 3.33333 39.2758 3.33333 38.8338V22.1672H16.6667C16.6667 23.9353 17.369 25.631 18.6193 26.8812C19.8695 28.1314 21.5652 28.8338 23.3333 28.8338H33.3333C35.1014 28.8338 36.7971 28.1314 38.0474 26.8812C39.2976 25.631 40 23.9353 40 22.1672V13.8338C40 12.0657 39.2976 10.37 38.0474 9.11978C36.7971 7.86953 35.1014 7.16715 33.3333 7.16715ZM3.33333 18.8338V7.16715C3.33333 6.2831 3.68452 5.43525 4.30964 4.81013C4.93476 4.18501 5.78261 3.83382 6.66667 3.83382H18.3333C19.2174 3.83382 20.0652 4.18501 20.6904 4.81013C21.3155 5.43525 21.6667 6.2831 21.6667 7.16715V15.5005C21.6667 16.3845 21.3155 17.2324 20.6904 17.8575C20.0652 18.4826 19.2174 18.8338 18.3333 18.8338H3.33333ZM36.6667 22.1672C36.6667 23.0512 36.3155 23.8991 35.6904 24.5242C35.0652 25.1493 34.2174 25.5005 33.3333 25.5005H23.3333C22.4493 25.5005 21.6014 25.1493 20.9763 24.5242C20.3512 23.8991 20 23.0512 20 22.1672V21.9305C21.4269 21.5621 22.6915 20.7312 23.5962 19.5679C24.5008 18.4045 24.9945 16.9742 25 15.5005V10.5005H33.3333C34.2174 10.5005 35.0652 10.8517 35.6904 11.4768C36.3155 12.1019 36.6667 12.9498 36.6667 13.8338V22.1672Z" fill="#1D266C"/>
<g id="Mask group">
<mask id="mask0_1_588" style="mask-type:alpha" maskUnits="userSpaceOnUse" x="0" y="0" width="40" height="41">
<path id="Vector_2" d="M33.3333 7.16715H25C25 5.39904 24.2976 3.70335 23.0474 2.45311C21.7971 1.20287 20.1014 0.500488 18.3333 0.500488L6.66667 0.500488C4.89856 0.500488 3.20286 1.20287 1.95262 2.45311C0.702379 3.70335 0 5.39904 0 7.16715L0 38.8338C0 39.2758 0.175595 39.6998 0.488155 40.0123C0.800716 40.3249 1.22464 40.5005 1.66667 40.5005C2.10869 40.5005 2.53262 40.3249 2.84518 40.0123C3.15774 39.6998 3.33333 39.2758 3.33333 38.8338V22.1672H16.6667C16.6667 23.9353 17.369 25.631 18.6193 26.8812C19.8695 28.1314 21.5652 28.8338 23.3333 28.8338H33.3333C35.1014 28.8338 36.7971 28.1314 38.0474 26.8812C39.2976 25.631 40 23.9353 40 22.1672V13.8338C40 12.0657 39.2976 10.37 38.0474 9.11978C36.7971 7.86953 35.1014 7.16715 33.3333 7.16715ZM3.33333 18.8338V7.16715C3.33333 6.2831 3.68452 5.43525 4.30964 4.81013C4.93476 4.18501 5.78261 3.83382 6.66667 3.83382H18.3333C19.2174 3.83382 20.0652 4.18501 20.6904 4.81013C21.3155 5.43525 21.6667 6.2831 21.6667 7.16715V15.5005C21.6667 16.3845 21.3155 17.2324 20.6904 17.8575C20.0652 18.4826 19.2174 18.8338 18.3333 18.8338H3.33333ZM36.6667 22.1672C36.6667 23.0512 36.3155 23.8991 35.6904 24.5242C35.0652 25.1493 34.2174 25.5005 33.3333 25.5005H23.3333C22.4493 25.5005 21.6014 25.1493 20.9763 24.5242C20.3512 23.8991 20 23.0512 20 22.1672V21.9305C21.4269 21.5621 22.6915 20.7312 23.5962 19.5679C24.5008 18.4045 24.9945 16.9742 25 15.5005V10.5005H33.3333C34.2174 10.5005 35.0652 10.8517 35.6904 11.4768C36.3155 12.1019 36.6667 12.9498 36.6667 13.8338V22.1672Z" fill="black"/>
</mask>
<g mask="url(#mask0_1_588)">
<path id="Vector 14" d="M25 12.0005V6.50049L32 3.50049L45 4.50049L49.5 24.0005L31 35.5005L8 22.5005L26.5 22.0005L25 12.0005Z" fill="#9C9C9C"/>
</g>
</g>
</g>
<defs>
<clipPath id="clip0_1_588">
<rect width="40" height="40" fill="white" transform="translate(0 0.500488)"/>
</clipPath>
</defs>
</svg>
