<svg width="60" height="60" viewBox="0 0 60 60" fill="none" xmlns="http://www.w3.org/2000/svg">
<g id="Frame 20665" clip-path="url(#clip0_1_467)">
<g id="Group 20726">
<g id="Group 20724">
<g id="Subtract">
<mask id="path-1-inside-1_1_467" fill="white">
<path fill-rule="evenodd" clip-rule="evenodd" d="M30.009 13.5063C29.9882 13.5061 29.9674 13.506 29.9466 13.506C27.3598 13.506 25.0994 15.1384 20.5788 18.4034L20.5787 18.4034L11.929 24.6504C8.67706 26.999 7.05108 28.1733 6.17398 29.8887C5.29688 31.6041 5.29688 33.6098 5.29688 37.6213V42.5406C5.29688 50.0831 5.29688 53.8543 7.64002 56.1975C9.98317 58.5406 13.7544 58.5406 21.2969 58.5406H38.5963C46.1388 58.5406 49.91 58.5406 52.2532 56.1975C54.5963 53.8543 54.5963 50.0831 54.5963 42.5406V37.6213C54.5963 33.6098 54.5963 31.6041 53.7192 29.8887C52.8421 28.1733 51.2161 26.999 47.9642 24.6504L42.6509 20.813C41.9987 21.0976 41.3066 21.3078 40.5853 21.4328L46.9619 26.0381C48.6123 27.2301 49.7584 28.0598 50.6096 28.7992C51.435 29.5163 51.8905 30.0723 52.1951 30.668C52.4997 31.2638 52.6837 31.9586 52.7818 33.0475C52.8829 34.1705 52.8845 35.5854 52.8845 37.6213V42.5406C52.8845 46.3603 52.8809 49.0528 52.6069 51.0907C52.3395 53.0794 51.8433 54.1866 51.0428 54.9871C50.2422 55.7876 49.1351 56.2838 47.1464 56.5512C45.1085 56.8252 42.4159 56.8288 38.5963 56.8288H21.2969C17.4772 56.8288 14.7847 56.8252 12.7468 56.5512C10.7581 56.2838 9.65095 55.7876 8.85044 54.9871C8.04993 54.1866 7.55366 53.0794 7.28629 51.0907C7.0123 49.0528 7.00866 46.3603 7.00866 42.5406V37.6213C7.00866 35.5854 7.01026 34.1705 7.1114 33.0476C7.20948 31.9586 7.39348 31.2638 7.69809 30.668C8.00269 30.0723 8.45822 29.5163 9.2836 28.7992C10.1347 28.0598 11.2809 27.2301 12.9313 26.0381L21.581 19.7911C23.8733 18.1355 25.4774 16.9802 26.826 16.2229C28.1362 15.4871 29.0534 15.2178 29.9466 15.2178C30.0886 15.2178 30.2312 15.2246 30.3758 15.239C30.1995 14.6827 30.0753 14.1032 30.009 13.5063Z"/>
</mask>
<path fill-rule="evenodd" clip-rule="evenodd" d="M30.009 13.5063C29.9882 13.5061 29.9674 13.506 29.9466 13.506C27.3598 13.506 25.0994 15.1384 20.5788 18.4034L20.5787 18.4034L11.929 24.6504C8.67706 26.999 7.05108 28.1733 6.17398 29.8887C5.29688 31.6041 5.29688 33.6098 5.29688 37.6213V42.5406C5.29688 50.0831 5.29688 53.8543 7.64002 56.1975C9.98317 58.5406 13.7544 58.5406 21.2969 58.5406H38.5963C46.1388 58.5406 49.91 58.5406 52.2532 56.1975C54.5963 53.8543 54.5963 50.0831 54.5963 42.5406V37.6213C54.5963 33.6098 54.5963 31.6041 53.7192 29.8887C52.8421 28.1733 51.2161 26.999 47.9642 24.6504L42.6509 20.813C41.9987 21.0976 41.3066 21.3078 40.5853 21.4328L46.9619 26.0381C48.6123 27.2301 49.7584 28.0598 50.6096 28.7992C51.435 29.5163 51.8905 30.0723 52.1951 30.668C52.4997 31.2638 52.6837 31.9586 52.7818 33.0475C52.8829 34.1705 52.8845 35.5854 52.8845 37.6213V42.5406C52.8845 46.3603 52.8809 49.0528 52.6069 51.0907C52.3395 53.0794 51.8433 54.1866 51.0428 54.9871C50.2422 55.7876 49.1351 56.2838 47.1464 56.5512C45.1085 56.8252 42.4159 56.8288 38.5963 56.8288H21.2969C17.4772 56.8288 14.7847 56.8252 12.7468 56.5512C10.7581 56.2838 9.65095 55.7876 8.85044 54.9871C8.04993 54.1866 7.55366 53.0794 7.28629 51.0907C7.0123 49.0528 7.00866 46.3603 7.00866 42.5406V37.6213C7.00866 35.5854 7.01026 34.1705 7.1114 33.0476C7.20948 31.9586 7.39348 31.2638 7.69809 30.668C8.00269 30.0723 8.45822 29.5163 9.2836 28.7992C10.1347 28.0598 11.2809 27.2301 12.9313 26.0381L21.581 19.7911C23.8733 18.1355 25.4774 16.9802 26.826 16.2229C28.1362 15.4871 29.0534 15.2178 29.9466 15.2178C30.0886 15.2178 30.2312 15.2246 30.3758 15.239C30.1995 14.6827 30.0753 14.1032 30.009 13.5063Z" fill="#BF9A66"/>
<path d="M30.009 13.5063L31.9968 13.2856L31.8012 11.5244L30.0293 11.5064L30.009 13.5063ZM20.5788 18.4034L21.6603 20.0857L21.7058 20.0564L21.7497 20.0247L20.5788 18.4034ZM20.5787 18.4034L19.4972 16.721L19.4517 16.7503L19.4078 16.782L20.5787 18.4034ZM11.929 24.6504L13.1 26.2717L11.929 24.6504ZM7.64002 56.1975L9.05423 54.7833L9.05423 54.7833L7.64002 56.1975ZM53.7192 29.8887L55.4999 28.9782L55.4999 28.9782L53.7192 29.8887ZM47.9642 24.6504L49.1351 23.029V23.029L47.9642 24.6504ZM42.6509 20.813L43.8219 19.1917L42.8968 18.5236L41.851 18.98L42.6509 20.813ZM40.5853 21.4328L40.2439 19.4621L35.5636 20.2731L39.4143 23.0541L40.5853 21.4328ZM46.9619 26.0381L48.1329 24.4167V24.4167L46.9619 26.0381ZM50.6096 28.7992L49.2979 30.309V30.309L50.6096 28.7992ZM52.1951 30.668L53.9758 29.7575L53.9758 29.7575L52.1951 30.668ZM52.7818 33.0475L50.7899 33.227V33.227L52.7818 33.0475ZM52.6069 51.0907L50.6247 50.8242L52.6069 51.0907ZM51.0428 54.9871L52.457 56.4013H52.457L51.0428 54.9871ZM47.1464 56.5512L47.4129 58.5334H47.4129L47.1464 56.5512ZM12.7468 56.5512L12.4803 58.5334H12.4803L12.7468 56.5512ZM7.28629 51.0907L5.30412 51.3572H5.30412L7.28629 51.0907ZM7.1114 33.0476L5.11946 32.8681H5.11946L7.1114 33.0476ZM7.69809 30.668L9.47881 31.5785L9.47881 31.5785L7.69809 30.668ZM9.2836 28.7992L10.5953 30.309L10.5953 30.309L9.2836 28.7992ZM12.9313 26.0381L14.1022 27.6595H14.1022L12.9313 26.0381ZM21.581 19.7911L20.41 18.1697L21.581 19.7911ZM26.826 16.2229L27.8053 17.9667V17.9667L26.826 16.2229ZM30.3758 15.239L30.1777 17.2291L33.2004 17.5301L32.2823 14.6345L30.3758 15.239ZM30.0293 11.5064C30.0018 11.5061 29.9742 11.506 29.9466 11.506V15.506C29.9606 15.506 29.9747 15.506 29.9886 15.5062L30.0293 11.5064ZM29.9466 11.506C28.1856 11.506 26.6296 12.0762 25.0086 12.9865C23.4325 13.8715 21.6307 15.1765 19.4078 16.782L21.7497 20.0247C24.0475 18.3652 25.6362 17.2216 26.9671 16.4742C28.2532 15.752 29.1207 15.506 29.9466 15.506V11.506ZM19.4972 16.721L19.4972 16.721L21.6603 20.0857L21.6603 20.0857L19.4972 16.721ZM19.4078 16.782L10.758 23.029L13.1 26.2717L21.7497 20.0247L19.4078 16.782ZM10.758 23.029C9.16059 24.1827 7.85538 25.1231 6.84922 25.9973C5.81297 26.8976 4.9883 27.8145 4.39325 28.9782L7.9547 30.7992C8.23676 30.2476 8.66362 29.7197 9.47263 29.0168C10.3117 28.2878 11.4455 27.4667 13.1 26.2717L10.758 23.029ZM4.39325 28.9782C3.79821 30.142 3.53771 31.3474 3.41458 32.7146C3.29501 34.0421 3.29688 35.6507 3.29688 37.6213H7.29688C7.29688 35.5804 7.29874 34.1805 7.39845 33.0734C7.49459 32.006 7.67264 31.3509 7.9547 30.7992L4.39325 28.9782ZM3.29688 37.6213V42.5406H7.29688V37.6213H3.29688ZM3.29688 42.5406C3.29688 46.2553 3.29263 49.2425 3.6076 51.5853C3.93031 53.9856 4.6207 56.0066 6.22581 57.6117L9.05423 54.7833C8.3162 54.0452 7.83501 53.009 7.57193 51.0523C7.30112 49.038 7.29688 46.3684 7.29688 42.5406H3.29688ZM6.22581 57.6117C7.83092 59.2168 9.85192 59.9072 12.2522 60.2299C14.595 60.5449 17.5822 60.5406 21.2969 60.5406V56.5406C17.4691 56.5406 14.7995 56.5364 12.7852 56.2656C10.8285 56.0025 9.79227 55.5213 9.05423 54.7833L6.22581 57.6117ZM21.2969 60.5406H38.5963V56.5406H21.2969V60.5406ZM38.5963 60.5406C42.311 60.5406 45.2982 60.5449 47.641 60.2299C50.0413 59.9072 52.0623 59.2168 53.6674 57.6117L50.839 54.7833C50.1009 55.5213 49.0647 56.0025 47.108 56.2656C45.0937 56.5364 42.4241 56.5406 38.5963 56.5406V60.5406ZM53.6674 57.6117C55.2725 56.0066 55.9629 53.9856 56.2856 51.5853C56.6006 49.2425 56.5963 46.2553 56.5963 42.5406H52.5963C52.5963 46.3684 52.5921 49.038 52.3213 51.0523C52.0582 53.009 51.577 54.0452 50.839 54.7833L53.6674 57.6117ZM56.5963 42.5406V37.6213H52.5963V42.5406H56.5963ZM56.5963 37.6213C56.5963 35.6507 56.5982 34.0421 56.4786 32.7146C56.3555 31.3474 56.095 30.142 55.4999 28.9782L51.9385 30.7992C52.2206 31.3509 52.3986 32.006 52.4947 33.0734C52.5945 34.1805 52.5963 35.5804 52.5963 37.6213H56.5963ZM55.4999 28.9782C54.9049 27.8145 54.0802 26.8976 53.044 25.9973C52.0378 25.1231 50.7326 24.1827 49.1351 23.029L46.7932 26.2717C48.4477 27.4667 49.5815 28.2878 50.4206 29.0168C51.2296 29.7197 51.6564 30.2476 51.9385 30.7992L55.4999 28.9782ZM49.1351 23.029L43.8219 19.1917L41.4799 22.4344L46.7932 26.2717L49.1351 23.029ZM41.851 18.98C41.3436 19.2014 40.8053 19.3648 40.2439 19.4621L40.9268 23.4034C41.8079 23.2507 42.6538 22.9939 43.4508 22.6461L41.851 18.98ZM48.1329 24.4167L41.7563 19.8114L39.4143 23.0541L45.7909 27.6595L48.1329 24.4167ZM51.9213 27.2895C50.9865 26.4773 49.7542 25.5877 48.1329 24.4167L45.7909 27.6595C47.4705 28.8724 48.5304 29.6422 49.2979 30.309L51.9213 27.2895ZM53.9758 29.7575C53.5147 28.8557 52.8602 28.1052 51.9213 27.2895L49.2979 30.309C50.0097 30.9275 50.2663 31.2889 50.4144 31.5785L53.9758 29.7575ZM54.7737 32.8681C54.6622 31.6294 54.437 30.6594 53.9758 29.7575L50.4144 31.5785C50.5625 31.8681 50.7053 32.2878 50.7899 33.227L54.7737 32.8681ZM54.8845 37.6213C54.8845 35.6214 54.8848 34.1015 54.7737 32.8681L50.7899 33.227C50.8811 34.2395 50.8845 35.5495 50.8845 37.6213H54.8845ZM54.8845 42.5406V37.6213H50.8845V42.5406H54.8845ZM54.5891 51.3572C54.8852 49.1548 54.8845 46.3028 54.8845 42.5406H50.8845C50.8845 46.4177 50.8766 48.9507 50.6247 50.8242L54.5891 51.3572ZM52.457 56.4013C53.6905 55.1677 54.2917 53.5688 54.5891 51.3572L50.6247 50.8242C50.3873 52.5901 49.996 53.2054 49.6285 53.5729L52.457 56.4013ZM47.4129 58.5334C49.6245 58.236 51.2234 57.6348 52.457 56.4013L49.6285 53.5729C49.2611 53.9403 48.6457 54.3316 46.8799 54.5691L47.4129 58.5334ZM38.5963 58.8288C42.3585 58.8288 45.2105 58.8295 47.4129 58.5334L46.8799 54.5691C45.0064 54.8209 42.4734 54.8288 38.5963 54.8288V58.8288ZM21.2969 58.8288H38.5963V54.8288H21.2969V58.8288ZM12.4803 58.5334C14.6827 58.8295 17.5347 58.8288 21.2969 58.8288V54.8288C17.4198 54.8288 14.8868 54.8209 13.0133 54.5691L12.4803 58.5334ZM7.43622 56.4013C8.66976 57.6348 10.2687 58.236 12.4803 58.5334L13.0133 54.5691C11.2475 54.3316 10.6321 53.9403 10.2646 53.5729L7.43622 56.4013ZM5.30412 51.3572C5.60146 53.5688 6.20269 55.1678 7.43622 56.4013L10.2646 53.5729C9.89716 53.2054 9.50587 52.59 9.26846 50.8242L5.30412 51.3572ZM5.00866 42.5406C5.00866 46.3028 5.00802 49.1548 5.30412 51.3572L9.26846 50.8242C9.01657 48.9507 9.00866 46.4177 9.00866 42.5406H5.00866ZM5.00866 37.6213V42.5406H9.00866V37.6213H5.00866ZM5.11946 32.8681C5.00838 34.1015 5.00866 35.6214 5.00866 37.6213H9.00866C9.00866 35.5495 9.01213 34.2395 9.10333 33.227L5.11946 32.8681ZM5.91736 29.7575C5.45622 30.6594 5.23103 31.6294 5.11946 32.8681L9.10333 33.227C9.18793 32.2878 9.33074 31.8681 9.47881 31.5785L5.91736 29.7575ZM7.9719 27.2895C7.03299 28.1052 6.3785 28.8557 5.91736 29.7575L9.47881 31.5785C9.62689 31.2889 9.88345 30.9275 10.5953 30.309L7.9719 27.2895ZM11.7603 24.4167C10.139 25.5877 8.9067 26.4773 7.9719 27.2895L10.5953 30.309C11.3628 29.6422 12.4227 28.8724 14.1022 27.6595L11.7603 24.4167ZM20.41 18.1697L11.7603 24.4167L14.1022 27.6595L22.752 21.4124L20.41 18.1697ZM25.8467 14.479C24.3754 15.3053 22.6642 16.5417 20.41 18.1697L22.752 21.4124C25.0824 19.7293 26.5795 18.6551 27.8053 17.9667L25.8467 14.479ZM29.9466 13.2178C28.586 13.2178 27.3246 13.6491 25.8467 14.479L27.8053 17.9667C28.9477 17.3252 29.5207 17.2178 29.9466 17.2178V13.2178ZM30.574 13.2488C30.3617 13.2277 30.153 13.2178 29.9466 13.2178V17.2178C30.0242 17.2178 30.1006 17.2214 30.1777 17.2291L30.574 13.2488ZM32.2823 14.6345C32.1452 14.202 32.0484 13.751 31.9968 13.2856L28.0212 13.727C28.1021 14.4554 28.2538 15.1634 28.4694 15.8435L32.2823 14.6345Z" fill="#1D266C" mask="url(#path-1-inside-1_1_467)"/>
</g>
<g id="Mask group">
<mask id="mask0_1_467" style="mask-type:alpha" maskUnits="userSpaceOnUse" x="5" y="11" width="50" height="48">
<path id="Rectangle 147791" d="M6.29688 36.9334C6.29688 33.1549 6.31897 31.5811 6.95775 30.2173C7.59653 28.8535 8.79139 27.829 11.6941 25.4101L20.3438 18.202C22.8122 16.145 24.5942 14.6623 26.1165 13.6832C27.6156 12.7191 28.7624 12.3116 29.9466 12.3116C31.1308 12.3116 32.2776 12.7191 33.7766 13.6832C35.299 14.6623 37.081 16.145 39.5494 18.202L48.1991 25.4101C51.1018 27.829 52.2967 28.8535 52.9354 30.2173C53.5742 31.5811 53.5963 33.1549 53.5963 36.9334V42.5397C53.5963 46.3392 53.5942 49.0883 53.3123 51.1847C53.0344 53.2523 52.5009 54.5347 51.5461 55.4895C50.5913 56.4443 49.3089 56.9778 47.2412 57.2558C45.1449 57.5376 42.3958 57.5397 38.5963 57.5397H21.2969C17.4974 57.5397 14.7483 57.5376 12.6519 57.2558C10.5843 56.9778 9.30193 56.4443 8.34713 55.4895C7.39232 54.5347 6.85884 53.2523 6.58085 51.1847C6.299 49.0883 6.29688 46.3393 6.29688 42.5398V36.9334Z" fill="#C4C4C4" stroke="#1D266C" stroke-width="2"/>
</mask>
<g mask="url(#mask0_1_467)">
<path id="Rectangle 147790" d="M6.29688 65.3489C6.29688 61.5704 6.31897 59.9966 6.95775 58.6328C7.59653 57.269 8.79139 56.2445 11.6941 53.8256L20.3438 46.6175C22.8122 44.5605 24.5942 43.0779 26.1165 42.0987C27.6156 41.1346 28.7624 40.7271 29.9466 40.7271C31.1308 40.7271 32.2776 41.1346 33.7766 42.0987C35.299 43.0779 37.081 44.5605 39.5494 46.6175L48.1991 53.8256C51.1018 56.2445 52.2967 57.269 52.9354 58.6328C53.5742 59.9966 53.5963 61.5704 53.5963 65.3489V70.9553C53.5963 74.7548 53.5942 77.5038 53.3123 79.6002C53.0344 81.6678 52.5009 82.9502 51.5461 83.905C50.5913 84.8598 49.3089 85.3933 47.2412 85.6713C45.1449 85.9532 42.3958 85.9553 38.5963 85.9553H21.2969C17.4974 85.9553 14.7483 85.9532 12.6519 85.6713C10.5843 85.3933 9.30193 84.8598 8.34713 83.905C7.39232 82.9502 6.85884 81.6678 6.58085 79.6002C6.299 77.5038 6.29688 74.7548 6.29688 70.9553V65.3489Z" stroke="#1D266C" stroke-width="2"/>
</g>
</g>
<g id="Mask group_2">
<mask id="mask1_1_467" style="mask-type:alpha" maskUnits="userSpaceOnUse" x="5" y="14" width="50" height="45">
<path id="Rectangle 147791_2" d="M6.29688 38.7217C6.29688 37.8795 6.2971 37.4888 6.31351 37.1183C6.51349 32.6012 8.50469 28.3499 11.8468 25.3045C12.121 25.0546 12.421 24.8043 13.0679 24.2652L14.8064 22.8165C18.8798 19.422 20.7774 17.8511 22.7351 16.9341C27.3045 14.7936 32.5887 14.7936 37.1581 16.9341C39.1158 17.8511 41.0134 19.422 45.0868 22.8165L46.8253 24.2652C47.4722 24.8043 47.7722 25.0546 48.0464 25.3045C51.3885 28.3499 53.3797 32.6012 53.5797 37.1183C53.5961 37.4888 53.5963 37.8795 53.5963 38.7217C53.5963 40.4292 53.5955 41.2244 53.5429 41.8869C52.881 50.2127 46.2692 56.8244 37.9435 57.4863C37.2809 57.539 36.4857 57.5397 34.7782 57.5397H25.1149C23.4075 57.5397 22.6123 57.539 21.9497 57.4863C13.624 56.8244 7.01219 50.2127 6.35034 41.8869C6.29767 41.2244 6.29688 40.4292 6.29688 38.7217Z" fill="#C4C4C4" stroke="#1D266C" stroke-width="2"/>
</mask>
<g mask="url(#mask1_1_467)">
<g id="Subtract_2">
<mask id="path-6-inside-2_1_467" fill="white">
<path fill-rule="evenodd" clip-rule="evenodd" d="M7.302 22.2893L7.302 16.6829C7.302 12.8551 7.30625 10.1855 7.57706 8.17123C7.84013 6.21449 8.32132 5.1783 9.05936 4.44027C9.79739 3.70223 10.8336 3.22104 12.7903 2.95797C14.8046 2.68715 17.4742 2.68291 21.302 2.68291L38.6014 2.68291C42.4292 2.68291 45.0989 2.68716 47.1131 2.95797C49.0699 3.22105 50.106 3.70224 50.8441 4.44027C51.5821 5.1783 52.0633 6.2145 52.3264 8.17123C52.5972 10.1855 52.6014 12.8551 52.6014 16.6829V22.2893C52.6014 26.1611 52.5573 27.4661 52.035 28.5812C51.5127 29.6963 50.5385 30.5657 47.564 33.0444L38.9143 40.2525C37.7697 41.2063 36.786 42.0251 35.9155 42.7224C36.4214 43.1039 36.9567 43.5266 37.5298 43.9904C38.3358 43.338 39.2164 42.6042 40.1947 41.7889L48.8444 34.5808C51.6754 32.2217 53.0909 31.0421 53.8462 29.4295C54.6014 27.817 54.6014 25.9744 54.6014 22.2893V16.6829C54.6014 9.14044 54.6014 5.3692 52.2583 3.02605C49.9152 0.682911 46.1439 0.68291 38.6014 0.68291L21.302 0.682907C13.7595 0.682907 9.98829 0.682907 7.64515 3.02605C5.302 5.3692 5.302 9.14044 5.302 16.6829V22.2893C5.302 25.9744 5.302 27.817 6.05728 29.4295C6.81256 31.0421 8.22806 32.2217 11.059 34.5808L11.0591 34.5808L19.7088 41.7889C20.6881 42.605 21.5696 43.3396 22.3762 43.9925C22.9493 43.5286 23.4846 43.106 23.9904 42.7244C23.1193 42.0266 22.1349 41.2073 20.9891 40.2525L12.3394 33.0444C9.36497 30.5657 8.39074 29.6963 7.86846 28.5812C7.34619 27.4661 7.302 26.1611 7.302 22.2893Z"/>
</mask>
<path fill-rule="evenodd" clip-rule="evenodd" d="M7.302 22.2893L7.302 16.6829C7.302 12.8551 7.30625 10.1855 7.57706 8.17123C7.84013 6.21449 8.32132 5.1783 9.05936 4.44027C9.79739 3.70223 10.8336 3.22104 12.7903 2.95797C14.8046 2.68715 17.4742 2.68291 21.302 2.68291L38.6014 2.68291C42.4292 2.68291 45.0989 2.68716 47.1131 2.95797C49.0699 3.22105 50.106 3.70224 50.8441 4.44027C51.5821 5.1783 52.0633 6.2145 52.3264 8.17123C52.5972 10.1855 52.6014 12.8551 52.6014 16.6829V22.2893C52.6014 26.1611 52.5573 27.4661 52.035 28.5812C51.5127 29.6963 50.5385 30.5657 47.564 33.0444L38.9143 40.2525C37.7697 41.2063 36.786 42.0251 35.9155 42.7224C36.4214 43.1039 36.9567 43.5266 37.5298 43.9904C38.3358 43.338 39.2164 42.6042 40.1947 41.7889L48.8444 34.5808C51.6754 32.2217 53.0909 31.0421 53.8462 29.4295C54.6014 27.817 54.6014 25.9744 54.6014 22.2893V16.6829C54.6014 9.14044 54.6014 5.3692 52.2583 3.02605C49.9152 0.682911 46.1439 0.68291 38.6014 0.68291L21.302 0.682907C13.7595 0.682907 9.98829 0.682907 7.64515 3.02605C5.302 5.3692 5.302 9.14044 5.302 16.6829V22.2893C5.302 25.9744 5.302 27.817 6.05728 29.4295C6.81256 31.0421 8.22806 32.2217 11.059 34.5808L11.0591 34.5808L19.7088 41.7889C20.6881 42.605 21.5696 43.3396 22.3762 43.9925C22.9493 43.5286 23.4846 43.106 23.9904 42.7244C23.1193 42.0266 22.1349 41.2073 20.9891 40.2525L12.3394 33.0444C9.36497 30.5657 8.39074 29.6963 7.86846 28.5812C7.34619 27.4661 7.302 26.1611 7.302 22.2893Z" fill="#BF9A66"/>
<path d="M7.302 16.6829H9.302H7.302ZM7.302 22.2893H9.302H7.302ZM7.57706 8.17123L9.55923 8.43773L9.55923 8.43772L7.57706 8.17123ZM9.05936 4.44027L10.4736 5.85448L10.4736 5.85448L9.05936 4.44027ZM12.7903 2.95797L13.0568 4.94013L13.0568 4.94013L12.7903 2.95797ZM21.302 2.68291V4.68291V2.68291ZM38.6014 2.68291V0.682909V2.68291ZM47.1131 2.95797L46.8466 4.94013L47.1131 2.95797ZM50.8441 4.44027L52.2583 3.02606L52.2583 3.02605L50.8441 4.44027ZM52.3264 8.17123L54.3086 7.90474V7.90473L52.3264 8.17123ZM52.035 28.5812L50.2238 27.7329L50.2238 27.7329L52.035 28.5812ZM47.564 33.0444L46.2837 31.5079V31.5079L47.564 33.0444ZM38.9143 40.2525L40.1947 41.7889L38.9143 40.2525ZM35.9155 42.7224L34.6651 41.1615L32.657 42.7702L34.7113 44.3193L35.9155 42.7224ZM37.5298 43.9904L36.2715 45.545L37.5298 46.5635L38.7881 45.545L37.5298 43.9904ZM40.1947 41.7889L38.9143 40.2525L40.1947 41.7889ZM48.8444 34.5808L47.564 33.0444L48.8444 34.5808ZM53.8462 29.4295L52.035 28.5812L52.035 28.5812L53.8462 29.4295ZM52.2583 3.02605L53.6725 1.61184L52.2583 3.02605ZM38.6014 0.68291V2.68291V0.68291ZM21.302 0.682907V-1.31709V0.682907ZM7.64515 3.02605L6.23093 1.61184L6.23093 1.61184L7.64515 3.02605ZM6.05728 29.4295L4.2461 30.2778H4.2461L6.05728 29.4295ZM11.059 34.5808L12.4732 33.1666L12.4091 33.1024L12.3394 33.0444L11.059 34.5808ZM11.0591 34.5808L9.64484 35.995L9.70899 36.0592L9.77868 36.1173L11.0591 34.5808ZM19.7088 41.7889L20.9891 40.2525H20.9891L19.7088 41.7889ZM22.3762 43.9925L21.1179 45.5471L22.3763 46.5656L23.6346 45.547L22.3762 43.9925ZM23.9904 42.7244L25.1947 44.3212L27.2489 42.772L25.2408 41.1635L23.9904 42.7244ZM20.9891 40.2525L22.2695 38.716L20.9891 40.2525ZM12.3394 33.0444L11.0591 34.5808H11.0591L12.3394 33.0444ZM7.86846 28.5812L9.67964 27.7329L9.67964 27.7329L7.86846 28.5812ZM5.302 16.6829L5.302 22.2893H9.302L9.302 16.6829H5.302ZM5.5949 7.90473C5.30197 10.0835 5.302 12.9128 5.302 16.6829H9.302C9.302 12.7975 9.31053 10.2875 9.55923 8.43773L5.5949 7.90473ZM7.64515 3.02605C6.4742 4.19699 5.88796 5.72489 5.59489 7.90474L9.55923 8.43772C9.7923 6.7041 10.1684 6.1596 10.4736 5.85448L7.64515 3.02605ZM12.5238 0.975801C10.344 1.26887 8.81609 1.85511 7.64515 3.02605L10.4736 5.85448C10.7787 5.54936 11.3232 5.17321 13.0568 4.94013L12.5238 0.975801ZM21.302 0.682908C17.5319 0.682908 14.7026 0.682871 12.5238 0.975801L13.0568 4.94013C14.9066 4.69143 17.4166 4.68291 21.302 4.68291V0.682908ZM38.6014 0.682909L21.302 0.682908V4.68291L38.6014 4.68291V0.682909ZM47.3796 0.975804C45.2009 0.682874 42.3716 0.68291 38.6014 0.682909V4.68291C42.4869 4.68291 44.9969 4.69144 46.8466 4.94013L47.3796 0.975804ZM52.2583 3.02605C51.0874 1.85511 49.5595 1.26888 47.3796 0.975804L46.8466 4.94013C48.5802 5.17321 49.1247 5.54936 49.4299 5.85449L52.2583 3.02605ZM54.3086 7.90473C54.0155 5.72489 53.4292 4.197 52.2583 3.02606L49.4299 5.85448C49.735 6.15961 50.1111 6.7041 50.3442 8.43773L54.3086 7.90473ZM54.6014 16.6829C54.6014 12.9128 54.6015 10.0835 54.3086 7.90474L50.3442 8.43772C50.5929 10.2875 50.6014 12.7975 50.6014 16.6829H54.6014ZM54.6014 22.2893V16.6829H50.6014V22.2893H54.6014ZM53.8462 29.4295C54.2446 28.5787 54.4204 27.7151 54.5076 26.6293C54.5917 25.5837 54.6014 24.2034 54.6014 22.2893H50.6014C50.6014 24.247 50.5891 25.4551 50.5205 26.3088C50.4551 27.1222 50.3476 27.4686 50.2238 27.7329L53.8462 29.4295ZM48.8444 34.5808C50.3148 33.3554 51.369 32.4643 52.1184 31.7303C52.8967 30.9682 53.4477 30.2803 53.8462 29.4295L50.2238 27.7329C50.1 27.9972 49.9027 28.3016 49.3197 28.8725C48.7078 29.4717 47.7877 30.2546 46.2837 31.5079L48.8444 34.5808ZM40.1947 41.7889L48.8444 34.5808L46.2837 31.5079L37.6339 38.716L40.1947 41.7889ZM37.1659 44.2833C38.0544 43.5716 39.0536 42.7398 40.1947 41.7889L37.6339 38.716C36.4857 39.6729 35.5176 40.4786 34.6651 41.1615L37.1659 44.2833ZM34.7113 44.3193C35.1928 44.6824 35.7091 45.0898 36.2715 45.545L38.7881 42.4358C38.2044 41.9634 37.65 41.5255 37.1196 41.1256L34.7113 44.3193ZM38.7881 45.545C39.6074 44.8818 40.4997 44.1382 41.475 43.3254L38.9143 40.2525C37.9331 41.0702 37.0641 41.7942 36.2714 42.4359L38.7881 45.545ZM41.475 43.3254L50.1248 36.1173L47.564 33.0444L38.9143 40.2525L41.475 43.3254ZM50.1248 36.1173C52.8123 33.8777 54.669 32.3879 55.6573 30.2778L52.035 28.5812C51.5127 29.6963 50.5385 30.5657 47.564 33.0444L50.1248 36.1173ZM55.6573 30.2778C56.6456 28.1678 56.6014 25.7877 56.6014 22.2893H52.6014C52.6014 26.1611 52.5573 27.4661 52.035 28.5812L55.6573 30.2778ZM56.6014 22.2893V16.6829H52.6014V22.2893H56.6014ZM56.6014 16.6829C56.6014 12.9682 56.6057 9.98099 56.2907 7.63824C55.968 5.23795 55.2776 3.21695 53.6725 1.61184L50.8441 4.44027C51.5821 5.1783 52.0633 6.2145 52.3264 8.17123C52.5972 10.1855 52.6014 12.8551 52.6014 16.6829H56.6014ZM53.6725 1.61184C52.0674 0.00673056 50.0464 -0.683652 47.6461 -1.00636C45.3034 -1.32134 42.3161 -1.31709 38.6014 -1.31709V2.68291C42.4292 2.68291 45.0989 2.68716 47.1131 2.95797C49.0699 3.22104 50.106 3.70223 50.8441 4.44027L53.6725 1.61184ZM38.6014 -1.31709L21.302 -1.31709V2.68291L38.6014 2.68291V-1.31709ZM21.302 -1.31709C17.5873 -1.31709 14.6001 -1.32134 12.2573 -1.00637C9.85704 -0.683656 7.83605 0.00672674 6.23093 1.61184L9.05936 4.44027C9.79739 3.70223 10.8336 3.22104 12.7903 2.95797C14.8046 2.68715 17.4742 2.68291 21.302 2.68291V-1.31709ZM6.23093 1.61184C4.62582 3.21695 3.93544 5.23795 3.61273 7.63824C3.29775 9.981 3.302 12.9682 3.302 16.6829H7.302C7.302 12.8551 7.30625 10.1855 7.57706 8.17123C7.84014 6.21449 8.32133 5.1783 9.05936 4.44026L6.23093 1.61184ZM3.302 16.6829V22.2893H7.302V16.6829H3.302ZM3.302 22.2893C3.302 25.7877 3.25781 28.1678 4.2461 30.2778L7.86846 28.5812C7.34619 27.4661 7.302 26.1611 7.302 22.2893H3.302ZM4.2461 30.2778C5.23439 32.3879 7.09115 33.8776 9.77866 36.1172L12.3394 33.0444C9.36496 30.5657 8.39074 29.6963 7.86846 28.5812L4.2461 30.2778ZM9.64482 35.995L9.64484 35.995L12.4733 33.1666L12.4732 33.1666L9.64482 35.995ZM9.77868 36.1173L18.4284 43.3254L20.9891 40.2525L12.3394 33.0444L9.77868 36.1173ZM18.4284 43.3254C19.4048 44.139 20.298 44.8834 21.1179 45.5471L23.6345 42.4379C22.8411 41.7958 21.9714 41.071 20.9891 40.2525L18.4284 43.3254ZM23.6346 45.547C24.197 45.0918 24.7132 44.6843 25.1947 44.3212L22.7862 41.1276C22.2559 41.5276 21.7015 41.9655 21.1179 42.438L23.6346 45.547ZM19.7088 41.7889C20.8509 42.7407 21.8509 43.5732 22.7401 44.2854L25.2408 41.1635C24.3877 40.4801 23.4189 39.6738 22.2695 38.716L19.7088 41.7889ZM11.0591 34.5808L19.7088 41.7889L22.2695 38.716L13.6198 31.5079L11.0591 34.5808ZM6.05728 29.4295C6.45577 30.2803 7.00672 30.9681 7.78502 31.7303C8.53443 32.4643 9.58861 33.3554 11.0591 34.5808L13.6198 31.5079C12.1158 30.2546 11.1956 29.4717 10.5837 28.8725C10.0007 28.3016 9.80343 27.9972 9.67964 27.7329L6.05728 29.4295ZM5.302 22.2893C5.302 24.2034 5.31177 25.5837 5.39581 26.6293C5.48309 27.7151 5.65879 28.5787 6.05729 29.4295L9.67964 27.7329C9.55586 27.4686 9.44833 27.1222 9.38295 26.3088C9.31433 25.4551 9.302 24.247 9.302 22.2893H5.302Z" fill="#1D266C" mask="url(#path-6-inside-2_1_467)"/>
</g>
</g>
</g>
</g>
<g id="Group 20725">
<path id="Subtract_3" fill-rule="evenodd" clip-rule="evenodd" d="M30.9766 15.2871L32.8141 16.1463L40.6841 19.826L42.5216 20.6851L41.5487 22.465L31.9673 39.9935L30.75 39.75L29.7933 39.75L39.7112 21.6059L32.0721 18.0341L22.7642 41.7161L21.1184 40.3694L30.2346 17.175L30.9766 15.2871Z" fill="#BF9A66"/>
<path id="Subtract_4" fill-rule="evenodd" clip-rule="evenodd" d="M40.9851 19.9694C43.4078 19.4783 45.5744 17.885 46.7018 15.4738C48.5908 11.4338 46.847 6.62746 42.8071 4.73851C38.7671 2.84956 33.9607 4.59331 32.0718 8.63328C30.9444 11.0445 31.111 13.7287 32.2876 15.9028L30.9687 15.2861L30.4156 16.6934C29.0282 14.0061 28.8579 10.7274 30.2379 7.77583C32.6004 2.72305 38.6117 0.542141 43.6645 2.90464C48.7173 5.26715 50.8982 11.2784 48.5357 16.3312C47.2031 19.1814 44.7095 21.1177 41.8818 21.8403L42.5138 20.6842L40.9851 19.9694Z" fill="#BF9A66"/>
<rect id="Rectangle 147787" x="33.6094" y="21.6733" width="2.61498" height="5.36983" rx="1.30749" transform="rotate(25.0591 33.6094 21.6733)" fill="#BF9A66"/>
<path id="Vector 9" d="M33.1641 5.61621L48.4324 12.3209" stroke="#BF9A66" stroke-width="2" stroke-linecap="round"/>
<path id="Vector 10" d="M30.9766 9.23926L46.3826 16.4288" stroke="#BF9A66" stroke-width="2" stroke-linecap="round"/>
</g>
</g>
</g>
<defs>
<clipPath id="clip0_1_467">
<rect width="60" height="60" fill="white"/>
</clipPath>
</defs>
</svg>
