<svg width="60" height="60" viewBox="0 0 60 60" fill="none" xmlns="http://www.w3.org/2000/svg">
<g id="Frame 20666" clip-path="url(#clip0_1_511)">
<g id="Group 20844">
<path id="Subtract" fill-rule="evenodd" clip-rule="evenodd" d="M20.9225 7.27402H17.1223C16.6518 7.27402 16.3945 7.27505 16.2084 7.28765L16.1839 7.28944L16.1821 7.31394C16.1695 7.49999 16.1685 7.75731 16.1685 8.22778C16.1685 9.36482 16.1695 10.1221 16.2092 10.7072C16.2477 11.2752 16.3162 11.5404 16.3849 11.7076C16.6774 12.4192 17.2424 12.9842 17.9541 13.2767C18.1212 13.3454 18.3864 13.4139 18.9544 13.4524C19.5395 13.4921 20.2968 13.4931 21.4338 13.4931H27.1825C28.3196 13.4931 29.0768 13.4921 29.6619 13.4524C30.23 13.4139 30.4952 13.3454 30.6623 13.2767C31.3739 12.9842 31.939 12.4192 32.2315 11.7076C32.3002 11.5404 32.3687 11.2752 32.4072 10.7072C32.4468 10.1221 32.4479 9.36482 32.4479 8.22778C32.4479 7.75731 32.4468 7.49999 32.4342 7.31394L32.4324 7.28944L32.4079 7.28765C32.2219 7.27505 31.9646 7.27402 31.4941 7.27402H27.6939L27.2413 5.99345C26.8135 4.78313 25.6591 3.9206 24.3082 3.9206C22.9573 3.9206 21.8029 4.78313 21.3751 5.99345L20.9225 7.27402ZM29.0521 5.35342C28.3616 3.39973 26.4983 2 24.3082 2C22.118 2 20.2548 3.39973 19.5643 5.35342H17.1223C16.2335 5.35342 15.7891 5.35342 15.4383 5.49766C14.9639 5.69269 14.5872 6.06937 14.3922 6.54378C14.2602 6.86467 14.249 7.26377 14.248 8.00946C10.3985 8.25086 7.93979 8.90554 6.16421 10.6811C3.35156 13.4938 3.35156 18.0207 3.35156 27.0744V35.6104C3.35156 44.6642 3.35156 49.1911 6.16421 52.0037C8.97686 54.8164 13.5038 54.8164 22.5575 54.8164H26.0634C27.3279 54.8164 28.5042 54.8164 29.5998 54.8087C29.5012 54.181 29.5383 53.5257 29.7285 52.8869C28.6106 52.8954 27.3934 52.8958 26.0634 52.8958H22.5575C17.9764 52.8958 14.7337 52.8917 12.2764 52.5613C9.87431 52.2384 8.51228 51.6357 7.52228 50.6457C6.53228 49.6557 5.92956 48.2936 5.60661 45.8916C5.27624 43.4343 5.27216 40.1916 5.27216 35.6104V27.0744C5.27216 22.4932 5.27624 19.2506 5.60661 16.7933C5.92956 14.3912 6.53228 13.0292 7.52228 12.0392C8.51228 11.0492 9.87431 10.4465 12.2764 10.1235C12.8856 10.0416 13.5431 9.97976 14.2573 9.93306C14.2796 11.0875 14.3548 11.8205 14.6085 12.4378C15.0961 13.6238 16.0378 14.5655 17.2238 15.0531C18.101 15.4137 19.2119 15.4137 21.4338 15.4137H27.1825C29.4044 15.4137 30.5154 15.4137 31.3925 15.0531C32.5786 14.5655 33.5203 13.6238 34.0079 12.4378C34.2616 11.8205 34.3368 11.0874 34.3591 9.93276C35.075 9.9795 35.734 10.0414 36.3445 10.1235C38.7466 10.4465 40.1086 11.0492 41.0986 12.0392C41.8837 12.8243 42.4252 13.8433 42.7768 15.4295C43.331 15.0662 43.9197 14.7614 44.5326 14.5188C44.1179 12.9296 43.4697 11.6942 42.4567 10.6811C40.6804 8.90485 38.2205 8.25034 34.3684 8.00918C34.3674 7.26367 34.3561 6.86463 34.2242 6.54378C34.0292 6.06937 33.6525 5.69269 33.1781 5.49766C32.8272 5.35342 32.3828 5.35342 31.4941 5.35342H29.0521ZM45.1916 42.6586L42.8379 46.9645C42.4892 48.7187 41.9307 49.8136 41.0986 50.6457C40.9351 50.8092 40.7615 50.9621 40.5747 51.105L39.0078 53.9714C40.412 53.5547 41.5278 52.9326 42.4567 52.0037C44.419 50.0414 45.0122 47.2448 45.1916 42.6586ZM34.5366 40.6098C34.4442 40.5802 34.3457 40.5643 34.2435 40.5643H15.2052C14.6749 40.5643 14.245 40.9942 14.245 41.5246C14.245 42.0549 14.6749 42.4849 15.2052 42.4849H33.7996L34.5366 40.6098ZM15.2052 33.0191C14.6749 33.0191 14.245 33.449 14.245 33.9794C14.245 34.5097 14.6749 34.9397 15.2052 34.9397H34.2435C34.7739 34.9397 35.2038 34.5097 35.2038 33.9794C35.2038 33.449 34.7739 33.0191 34.2435 33.0191H15.2052ZM14.245 26.4342C14.245 25.9038 14.6749 25.4739 15.2052 25.4739H34.2435C34.7739 25.4739 35.2038 25.9038 35.2038 26.4342C35.2038 26.9645 34.7739 27.3945 34.2435 27.3945H15.2052C14.6749 27.3945 14.245 26.9645 14.245 26.4342Z" fill="#1D266C"/>
<g id="Group 20843">
<path id="Subtract_2" fill-rule="evenodd" clip-rule="evenodd" d="M41.788 27.4662L40.0234 26.6411L39.3109 28.454L29.8482 52.5301C29.0024 54.6821 29.975 57.1208 32.0695 58.1001C34.1641 59.0795 36.6591 58.2621 37.7681 56.2332L50.1758 33.5341L51.1101 31.8248L49.3456 30.9998L41.788 27.4662ZM41.0755 29.2791L31.6575 53.2412C31.1871 54.4381 31.728 55.7944 32.8929 56.3391C34.0578 56.8838 35.4455 56.4291 36.0623 55.3008L48.4113 32.709L41.0755 29.2791Z" fill="#BF9A66"/>
<path id="Subtract_3" fill-rule="evenodd" clip-rule="evenodd" d="M49.6472 31.1367C51.9718 30.6639 54.0502 29.1344 55.1321 26.8206C56.946 22.941 55.2715 18.3255 51.3919 16.5115C47.5124 14.6975 42.8968 16.3721 41.0829 20.2516C40.001 22.5655 40.16 25.1412 41.2877 27.2281L40.0313 26.6406L39.4969 28.0003C38.1605 25.418 37.9951 22.2657 39.3218 19.4282C41.5905 14.5761 47.3632 12.4817 52.2153 14.7504C57.0675 17.0191 59.1619 22.7918 56.8931 27.644C55.6148 30.3779 53.2241 32.2363 50.5124 32.9321L51.1179 31.8244L49.6472 31.1367Z" fill="#BF9A66"/>
<rect id="Rectangle 147787" x="42.3751" y="32.2756" width="3.44938" height="6.39141" rx="1.72469" transform="rotate(25.0591 42.3751 32.2756)" stroke="#BF9A66" stroke-width="1.29603"/>
<path id="Vector 9" d="M42.125 17.354L56.7872 23.7925" stroke="#BF9A66" stroke-width="1.29603" stroke-linecap="round"/>
<path id="Vector 10" d="M40.0234 20.8335L54.8179 27.7376" stroke="#BF9A66" stroke-width="1.29603" stroke-linecap="round"/>
</g>
</g>
</g>
<defs>
<clipPath id="clip0_1_511">
<rect width="60" height="60" fill="white"/>
</clipPath>
</defs>
</svg>
