<svg width="40" height="41" viewBox="0 0 40 41" fill="none" xmlns="http://www.w3.org/2000/svg">
<g id="palette (2) 1" clip-path="url(#clip0_1_605)">
<path id="Vector" d="M28.5299 13.9173C28.0521 14.0443 27.6226 14.3101 27.2958 14.6811C26.969 15.0521 26.7596 15.5117 26.694 16.0018C26.6284 16.4918 26.7095 16.9903 26.9272 17.4342C27.1449 17.8781 27.4893 18.2475 27.917 18.4957C28.3446 18.7439 28.8362 18.8597 29.3296 18.8285C29.8231 18.7973 30.2962 18.6205 30.6891 18.3205C31.0821 18.0204 31.3772 17.6106 31.5373 17.1428C31.6973 16.675 31.7151 16.1702 31.5883 15.6923C31.504 15.3749 31.3581 15.0772 31.1588 14.8163C30.9595 14.5553 30.7108 14.3361 30.4268 14.1713C30.1428 14.0064 29.8291 13.8992 29.5036 13.8556C29.1781 13.812 28.8473 13.833 28.5299 13.9173Z" fill="#9C9C9C"/>
<path id="Vector_2" d="M20.1862 8.91732C19.7083 9.04428 19.2789 9.31007 18.9521 9.68109C18.6253 10.0521 18.4158 10.5117 18.3502 11.0018C18.2846 11.4918 18.3658 11.9903 18.5835 12.4342C18.8012 12.8781 19.1456 13.2475 19.5732 13.4957C20.0008 13.7439 20.4924 13.8597 20.9859 13.8285C21.4793 13.7973 21.9524 13.6205 22.3454 13.3205C22.7383 13.0204 23.0335 12.6106 23.1935 12.1428C23.3536 11.675 23.3713 11.1702 23.2445 10.6923C23.1603 10.3749 23.0144 10.0772 22.8151 9.81626C22.6158 9.55528 22.367 9.33611 22.083 9.17128C21.799 9.00644 21.4853 8.89918 21.1599 8.8556C20.8344 8.81203 20.5035 8.833 20.1862 8.91732Z" fill="#9C9C9C"/>
<path id="Vector_3" d="M11.858 13.9173C11.3802 14.0443 10.9507 14.3101 10.6239 14.6811C10.2972 15.0521 10.0877 15.5117 10.0221 16.0018C9.9565 16.4918 10.0377 16.9903 10.2554 17.4342C10.473 17.8781 10.8175 18.2475 11.2451 18.4957C11.6727 18.7439 12.1643 18.8597 12.6577 18.8285C13.1512 18.7973 13.6243 18.6205 14.0172 18.3205C14.4102 18.0204 14.7054 17.6106 14.8654 17.1428C15.0254 16.675 15.0432 16.1702 14.9164 15.6923C14.8322 15.3749 14.6862 15.0772 14.487 14.8163C14.2877 14.5553 14.0389 14.3361 13.7549 14.1713C13.4709 14.0064 13.1572 13.8992 12.8317 13.8556C12.5063 13.812 12.1754 13.833 11.858 13.9173Z" fill="#1D266C"/>
<path id="Vector_4" d="M11.858 23.9173C11.3802 24.0443 10.9507 24.3101 10.6239 24.6811C10.2972 25.0521 10.0877 25.5117 10.0221 26.0018C9.9565 26.4918 10.0377 26.9903 10.2554 27.4342C10.473 27.8781 10.8175 28.2475 11.2451 28.4957C11.6727 28.7439 12.1643 28.8597 12.6577 28.8285C13.1512 28.7973 13.6243 28.6205 14.0172 28.3205C14.4102 28.0204 14.7054 27.6106 14.8654 27.1428C15.0254 26.675 15.0432 26.1702 14.9164 25.6923C14.8322 25.3749 14.6862 25.0772 14.487 24.8163C14.2877 24.5553 14.0389 24.3361 13.7549 24.1713C13.4709 24.0064 13.1572 23.8992 12.8317 23.8556C12.5063 23.812 12.1754 23.833 11.858 23.9173Z" fill="#1D266C"/>
<path id="Vector_5" d="M20.8356 0.512568C18.1523 0.419265 15.4776 0.867219 12.9711 1.82972C10.4645 2.79223 8.17748 4.24957 6.24623 6.11488C4.31498 7.98018 2.77909 10.2153 1.73011 12.6868C0.681142 15.1584 0.14057 17.8159 0.140625 20.5009C0.1468 25.8033 2.25592 30.8868 6.00531 34.6362C9.7547 38.3856 14.8382 40.4947 20.1406 40.5009C20.704 40.5009 21.2573 40.4642 21.8073 40.4176C22.2246 40.3824 22.6134 40.1914 22.8963 39.8826C23.1792 39.5737 23.3354 39.1697 23.334 38.7509L23.2806 32.7709C23.2671 31.5892 23.6061 30.4303 24.2544 29.4421C24.9026 28.454 25.8306 27.6815 26.9199 27.2232C28.0092 26.7649 29.2104 26.6417 30.3701 26.8693C31.5298 27.0969 32.5953 27.6649 33.4306 28.5009L33.5973 28.6676C33.9757 29.0492 34.4444 29.3289 34.9599 29.4807C35.4753 29.6325 36.0208 29.6515 36.5456 29.5359C37.0619 29.4275 37.5427 29.1911 37.9438 28.8483C38.3448 28.5055 38.6532 28.0674 38.8406 27.5742C39.7608 25.1581 40.2007 22.5856 40.1356 20.0009C39.9481 14.9243 37.86 10.1034 34.2853 6.49379C30.7106 2.88421 25.9102 0.749422 20.8356 0.512568ZM35.8056 26.1792L35.7823 26.1559C34.4795 24.8553 32.8193 23.9716 31.0129 23.6173C29.2065 23.263 27.3355 23.454 25.6379 24.1661C23.9404 24.8782 22.493 26.0791 21.48 27.6161C20.4669 29.1532 19.934 30.9568 19.949 32.7976L19.989 37.1676C15.5687 37.1477 11.3374 35.3727 8.22581 32.233C5.11427 29.0933 3.3774 24.8462 3.39729 20.4259C3.41718 16.0056 5.19221 11.7743 8.33188 8.66276C11.4715 5.55122 15.7187 3.81434 20.139 3.83424C20.334 3.83424 20.5306 3.83424 20.7273 3.84424C24.9546 4.04279 28.9531 5.82214 31.9304 8.82968C34.9076 11.8372 36.6465 15.8535 36.8023 20.0826C36.8573 22.1552 36.5209 24.2196 35.8106 26.1676L35.8056 26.1792Z" fill="#1D266C"/>
</g>
<defs>
<clipPath id="clip0_1_605">
<rect width="40" height="40" fill="white" transform="translate(0 0.500488)"/>
</clipPath>
</defs>
</svg>
