<svg width="36" height="15" viewBox="0 0 36 15" fill="none" xmlns="http://www.w3.org/2000/svg">
<path id="Subtract" fill-rule="evenodd" clip-rule="evenodd" d="M0.421276 14.5625C2.01826 12.672 4.45917 10.8119 7.579 10.8979C7.80094 9.41389 8.80091 7.07898 10.4088 6.14198C11.1806 5.6922 12.0435 5.47107 12.9077 5.24962C14.9635 4.72281 17.0262 4.19423 17.8856 0.581511C17.8995 0.533833 17.9411 0.438475 17.9966 0.438475L17.9966 14.5625L0.421276 14.5625ZM18.0027 14.5625L18.0027 0.437499C18.0582 0.437499 18.0998 0.532857 18.1137 0.580535C18.9731 4.19325 21.0358 4.72184 23.0916 5.24864C23.9558 5.47009 24.8187 5.69122 25.5905 6.141C27.1984 7.07801 28.1984 9.41291 28.4203 10.8969C31.5407 10.8109 33.9819 12.6717 35.5789 14.5625L18.0027 14.5625Z" fill="#BF9A66" fill-opacity="0.5"/>
</svg>
