<svg width="40" height="41" viewBox="0 0 40 41" fill="none" xmlns="http://www.w3.org/2000/svg">
<g id="users (1) 1" clip-path="url(#clip0_1_552)">
<path id="Vector" d="M12.5 22.1045C11.0166 22.1045 9.56659 21.6646 8.33322 20.8405C7.09985 20.0164 6.13856 18.8451 5.5709 17.4746C5.00325 16.1042 4.85472 14.5962 5.14411 13.1413C5.4335 11.6865 6.1478 10.3501 7.1967 9.30119C8.24559 8.2523 9.58196 7.538 11.0368 7.24861C12.4917 6.95922 13.9997 7.10774 15.3701 7.6754C16.7406 8.24306 17.9119 9.20435 18.736 10.4377C19.5601 11.6711 20 13.1211 20 14.6045C19.9978 16.5929 19.2069 18.4993 17.8009 19.9054C16.3948 21.3114 14.4884 22.1023 12.5 22.1045ZM12.5 10.4378C11.6759 10.4378 10.8703 10.6822 10.1851 11.14C9.49992 11.5979 8.96587 12.2486 8.6505 13.01C8.33514 13.7713 8.25262 14.6091 8.41339 15.4174C8.57417 16.2256 8.971 16.9681 9.55372 17.5508C10.1364 18.1335 10.8789 18.5303 11.6871 18.6911C12.4954 18.8519 13.3332 18.7694 14.0945 18.454C14.8559 18.1386 15.5066 17.6046 15.9645 16.9194C16.4223 16.2342 16.6667 15.4286 16.6667 14.6045C16.6667 13.4994 16.2277 12.4396 15.4463 11.6582C14.6649 10.8768 13.6051 10.4378 12.5 10.4378ZM25 38.7712V37.9378C25 34.6226 23.683 31.4432 21.3388 29.099C18.9946 26.7548 15.8152 25.4378 12.5 25.4378C9.18479 25.4378 6.00537 26.7548 3.66117 29.099C1.31696 31.4432 0 34.6226 0 37.9378L0 38.7712C0 39.2132 0.175595 39.6371 0.488155 39.9497C0.800716 40.2622 1.22464 40.4378 1.66667 40.4378C2.10869 40.4378 2.53262 40.2622 2.84518 39.9497C3.15774 39.6371 3.33333 39.2132 3.33333 38.7712V37.9378C3.33333 35.5067 4.2991 33.1751 6.01819 31.456C7.73727 29.7369 10.0688 28.7712 12.5 28.7712C14.9312 28.7712 17.2627 29.7369 18.9818 31.456C20.7009 33.1751 21.6667 35.5067 21.6667 37.9378V38.7712C21.6667 39.2132 21.8423 39.6371 22.1548 39.9497C22.4674 40.2622 22.8913 40.4378 23.3333 40.4378C23.7754 40.4378 24.1993 40.2622 24.5118 39.9497C24.8244 39.6371 25 39.2132 25 38.7712ZM40 30.4378C39.9999 28.1856 39.348 25.9816 38.1228 24.0918C36.8977 22.2019 35.1517 20.7071 33.0957 19.7878C31.0397 18.8684 28.7616 18.5638 26.5362 18.9107C24.3109 19.2576 22.2336 20.2413 20.555 21.7428C20.3896 21.8882 20.2547 22.0648 20.1579 22.2626C20.0612 22.4604 20.0046 22.6754 19.9915 22.8952C19.9783 23.1149 20.0088 23.3351 20.0812 23.5431C20.1537 23.751 20.2666 23.9425 20.4134 24.1065C20.5603 24.2706 20.7382 24.4039 20.9369 24.4987C21.1355 24.5936 21.3511 24.6482 21.5709 24.6593C21.7908 24.6705 22.0107 24.6379 22.218 24.5636C22.4252 24.4892 22.6157 24.3745 22.7783 24.2262C23.9774 23.1539 25.4612 22.4515 27.0507 22.2039C28.6401 21.9563 30.2673 22.1741 31.7357 22.8308C33.2041 23.4876 34.4511 24.5553 35.3261 25.9052C36.201 27.255 36.6666 28.8292 36.6667 30.4378C36.6667 30.8799 36.8423 31.3038 37.1548 31.6163C37.4674 31.9289 37.8913 32.1045 38.3333 32.1045C38.7754 32.1045 39.1993 31.9289 39.5118 31.6163C39.8244 31.3038 40 30.8799 40 30.4378Z" fill="#1D266C"/>
<path id="Vector_2" fill-rule="evenodd" clip-rule="evenodd" d="M29.1719 15.4375C27.6885 15.4375 26.2385 14.9976 25.0051 14.1735C23.7717 13.3494 22.8104 12.1781 22.2428 10.8076C21.6751 9.43718 21.5266 7.92918 21.816 6.47433C22.1054 5.01947 22.8197 3.6831 23.8686 2.6342C24.9175 1.58531 26.2538 0.871003 27.7087 0.581614C29.1636 0.292225 30.6716 0.44075 32.042 1.00841C33.4124 1.57606 34.5838 2.53736 35.4079 3.77073C36.232 5.00409 36.6719 6.45414 36.6719 7.9375C36.6697 9.92595 35.8788 11.8323 34.4727 13.2384C33.0667 14.6444 31.1603 15.4353 29.1719 15.4375ZM26.857 4.47305C27.5422 4.01521 28.3478 3.77084 29.1719 3.77084C30.2769 3.77084 31.3368 4.20982 32.1182 4.99122C32.8996 5.77263 33.3385 6.83243 33.3385 7.9375C33.3385 8.76159 33.0942 9.56717 32.6363 10.2524C32.1785 10.9376 31.5278 11.4716 30.7664 11.787C30.005 12.1024 29.1673 12.1849 28.359 12.0241C27.5507 11.8633 26.8083 11.4665 26.2256 10.8838C25.6429 10.3011 25.246 9.55863 25.0853 8.75038C24.9245 7.94212 25.007 7.10435 25.3224 6.34299C25.6377 5.58163 26.1718 4.93088 26.857 4.47305Z" fill="#9C9C9C"/>
</g>
<defs>
<clipPath id="clip0_1_552">
<rect width="40" height="40" fill="white" transform="translate(0 0.4375)"/>
</clipPath>
</defs>
</svg>
